<svg width="800" height="520" viewBox="0 0 800 520" fill="none" xmlns="http://www.w3.org/2000/svg">
  <rect width="800" height="520" rx="32" fill="#151922"/>
  <rect x="46" y="60" width="324" height="400" rx="28" fill="#202634"/>
  <rect x="74" y="102" width="268" height="316" rx="22" fill="#2B3140"/>
  <circle cx="112" cy="144" r="18" fill="#7C8CFF" fill-opacity=".45"/>
  <rect x="246" y="118" width="64" height="54" rx="12" fill="#FF8C6B" fill-opacity=".45"/>
  <path d="M98 350L130 300L170 360" stroke="#C3CCDD" stroke-width="18" stroke-linecap="round"/>
  <path d="M218 226L294 304" stroke="#C3CCDD" stroke-width="16" stroke-linecap="round"/>
  <rect x="124" y="194" width="128" height="118" rx="16" fill="#E1CBAA"/>
  <rect x="446" y="60" width="308" height="400" rx="28" fill="#202634"/>
  <rect x="478" y="102" width="244" height="316" rx="22" fill="#F0E0C5"/>
  <rect x="560" y="176" width="82" height="132" rx="14" fill="#B8885B"/>
  <rect x="522" y="332" width="156" height="16" rx="8" fill="#B7A289" fill-opacity=".45"/>
  <rect x="522" y="356" width="122" height="16" rx="8" fill="#B7A289" fill-opacity=".35"/>
  <path d="M512 138H688" stroke="#B7A289" stroke-width="10" stroke-linecap="round" opacity=".45"/>
  <circle cx="400" cy="260" r="32" fill="#7C8CFF"/>
  <path d="M388 260L398 270L416 252" stroke="#fff" stroke-width="10" stroke-linecap="round" stroke-linejoin="round"/>
</svg>
